<svg width="24.000000" height="24.000000" viewBox="0 0 24 24" fill="none" xmlns="http://www.w3.org/2000/svg" xmlns:xlink="http://www.w3.org/1999/xlink">
	<desc>
			Created with Pixso.
	</desc>
	<defs/>
	<path id="Icon" d="M7.25 7.25L7.25 7.13013C7.25 4.96239 8.71765 3.06964 10.8171 2.52979C11.5931 2.33025 12.407 2.33025 13.183 2.52979C15.2824 3.06964 16.75 4.96239 16.75 7.13013L16.75 7.25L18.2512 7.25C18.8224 7.25 19.3073 7.66898 19.3901 8.23422L19.6088 9.72668C20.0393 12.6651 20.0393 15.6507 19.6088 18.5891C19.4008 20.0081 18.2565 21.1052 16.83 21.2531L16.2011 21.3183C13.4079 21.608 10.5922 21.608 7.79889 21.3183L7.17004 21.2531C5.74347 21.1052 4.59918 20.0081 4.3913 18.5891C3.96069 15.6507 3.96069 12.6651 4.3913 9.72668L4.60992 8.23422C4.69275 7.66898 5.17761 7.25 5.7489 7.25L7.25 7.25ZM11.1906 3.98253C11.7216 3.84599 12.2784 3.84599 12.8094 3.98253C14.2458 4.3519 15.25 5.64693 15.25 7.13013L15.25 7.25L8.75 7.25L8.75 7.13013C8.75 5.64693 9.75415 4.3519 11.1906 3.98253ZM7.25 8.75L7.25 11C7.25 11.4142 7.58582 11.75 8 11.75C8.41425 11.75 8.75 11.4142 8.75 11L8.75 8.75L15.25 8.75L15.25 11C15.25 11.4142 15.5858 11.75 16 11.75C16.4142 11.75 16.75 11.4142 16.75 11L16.75 8.75L17.9496 8.75L18.1246 9.94414C18.534 12.7384 18.534 15.5774 18.1246 18.3716C18.0162 19.1118 17.4193 19.684 16.6753 19.7611L16.0464 19.8264C13.356 20.1053 10.644 20.1053 7.95361 19.8264L7.32477 19.7611C6.58069 19.684 5.98389 19.1118 5.87543 18.3717C5.466 15.5774 5.466 12.7384 5.87543 9.94414L6.05042 8.75L7.25 8.75Z" fill="#10B981" fill-opacity="1.000000" fill-rule="evenodd"/>
</svg>
