<svg width="24.000000" height="24.000000" viewBox="0 0 24 24" fill="none" xmlns="http://www.w3.org/2000/svg" xmlns:xlink="http://www.w3.org/1999/xlink">
	<desc>
			Created with Pixso.
	</desc>
	<defs>
		<clipPath id="clip2_40">
			<rect id="Hicon / Outline / Profile 1" width="24.000000" height="24.000000" fill="white" fill-opacity="0"/>
		</clipPath>
	</defs>
	<g clip-path="url(#clip2_40)">
		<path id="Vector" d="M7.25 6C7.25 3.37665 9.37659 1.25 12 1.25C14.6234 1.25 16.75 3.37665 16.75 6C16.75 8.62335 14.6234 10.75 12 10.75C9.37659 10.75 7.25 8.62335 7.25 6ZM12 2.75C10.2051 2.75 8.75 4.20508 8.75 6C8.75 7.79492 10.2051 9.25 12 9.25C13.7949 9.25 15.25 7.79492 15.25 6C15.25 4.20508 13.7949 2.75 12 2.75ZM4.25 17C4.25 14.3766 6.37659 12.25 9 12.25L15 12.25C17.6233 12.25 19.75 14.3766 19.75 17C19.75 19.6234 17.6233 21.75 15 21.75L9 21.75C6.37659 21.75 4.25 19.6234 4.25 17ZM9 13.75C7.20508 13.75 5.75 15.2051 5.75 17C5.75 18.7949 7.20508 20.25 9 20.25L15 20.25C16.7949 20.25 18.25 18.7949 18.25 17C18.25 15.2051 16.7949 13.75 15 13.75L9 13.75Z" fill="#FFFFFF" fill-opacity="1.000000" fill-rule="evenodd"/>
	</g>
</svg>
